<svg width="72" height="72" viewBox="0 0 72 72" fill="none" xmlns="http://www.w3.org/2000/svg">
<path d="M19.5591 25.3104C19.5591 28.7136 16.8003 31.4724 13.3971 31.4724C9.99388 31.4724 7.23504 28.7136 7.23504 25.3104C7.23504 21.9072 9.99388 19.1483 13.3971 19.1483C16.8003 19.1483 19.5591 21.9072 19.5591 25.3104Z" fill="#FEB64F"/>
<path d="M5.53607 49.0153H66.441V52.8517H5.53607V49.0153Z" fill="#5B7682"/>
<path d="M27.603 29.8881C27.603 32.7941 25.9154 35.1499 23.8337 35.1499C21.7519 35.1499 20.0643 32.7941 20.0643 29.8881C20.0643 26.9821 21.7519 24.6263 23.8337 24.6263C25.9154 24.6263 27.603 26.9821 27.603 29.8881Z" fill="#2196F3"/>
<path d="M28.2028 35.7891L24.0606 29.4576L31.5035 37.0039L28.2028 35.7891Z" fill="#1976D2"/>
<path fill-rule="evenodd" clip-rule="evenodd" d="M20.5752 26.8904C21.6672 24.0336 24.8687 22.6023 27.7256 23.6941L45.3555 30.4334C47.8738 31.3964 49.2818 33.9982 48.832 36.5584L64.4072 42.8103C66.086 43.4842 66.9012 45.3913 66.2275 47.0701C65.5537 48.7488 63.6465 49.5639 61.9678 48.8904L42.4951 41.073C42.1281 41.0134 41.7614 40.917 41.4004 40.7791L31.4541 36.9773L25.2773 30.6931L29.4834 38.0271C30.1224 39.1415 29.8126 40.5383 28.8096 41.2888L22.9981 48.2009C22.1076 49.2598 20.5267 49.396 19.4678 48.5056C18.4091 47.6152 18.2729 46.0352 19.1631 44.9763L24.2197 38.9607L20.8106 33.0144C20.4351 32.3594 20.3875 31.6069 20.6152 30.9451C20.1078 29.6924 20.0547 28.2524 20.5752 26.8904ZM24.0479 29.4832C24.0723 29.4945 24.097 29.5053 24.1211 29.5174L23.9668 29.3601L24.0479 29.4832Z" fill="#2196F3"/>
</svg>
