<svg width="72" height="72" viewBox="0 0 72 72" fill="none" xmlns="http://www.w3.org/2000/svg">
<path d="M39.6865 8.84106C39.6865 12.2443 36.9276 15.0031 33.5244 15.0031C30.1212 15.0031 27.3624 12.2443 27.3624 8.84106C27.3624 5.43786 30.1212 2.67902 33.5244 2.67902C36.9276 2.67902 39.6865 5.43786 39.6865 8.84106Z" fill="#FEB64F"/>
<path d="M5.54755 65.4846H66.4525V69.321H5.54755V65.4846Z" fill="#5B7682"/>
<path d="M33.0163 16.5179C34.9466 16.5165 36.6197 17.6158 37.444 19.223L42.2487 24.4017L50.2409 22.3499C51.5809 22.0058 52.9465 22.8127 53.2907 24.1527C53.6348 25.4927 52.8271 26.8583 51.487 27.2025L42.0544 29.6243C41.4972 29.7674 40.9367 29.709 40.446 29.4984C40.4243 29.4892 40.402 29.4818 40.3806 29.472C40.3505 29.4581 40.3221 29.4411 40.2927 29.4261C40.0346 29.2957 39.7928 29.1212 39.5847 28.8968L37.9938 27.1819L38.0026 39.4935C38.0055 39.5478 38.0075 39.6025 38.0075 39.6575V62.4261C38.0073 64.1151 36.638 65.4844 34.9489 65.4847C33.2597 65.4847 31.8895 64.1153 31.8893 62.4261V44.9905C29.6978 44.4739 28.0659 42.5081 28.0641 40.1585L28.0505 21.4915C28.0485 18.7467 30.2715 16.52 33.0163 16.5179ZM37.9841 30.8626V27.1712L33.5358 21.5364L37.9841 30.8626Z" fill="#2196F3"/>
<path d="M37.9997 27.1797L33.5247 21.5137L37.9996 30.9512L37.9997 27.1797Z" fill="#1976D2"/>
</svg>
