<svg width="72" height="72" viewBox="0 0 72 72" fill="none" xmlns="http://www.w3.org/2000/svg">
<path d="M38.805 20.6753C35.8577 22.3769 32.0891 21.3671 30.3875 18.4198C28.6859 15.4725 29.6957 11.7039 32.6429 10.0023C35.5902 8.30069 39.3588 9.3105 41.0604 12.2578C42.762 15.205 41.7522 18.9737 38.805 20.6753Z" fill="#FEB64F"/>
<path d="M51.5418 14.4703C52.1415 15.5239 51.9398 16.8126 51.1325 17.6384C51.066 17.7809 50.9866 17.9199 50.8909 18.0519L43.3877 28.3998L43.2079 37.2406C43.2031 37.4758 43.1839 37.7074 43.1533 37.9352L48.8656 43.2647C49.1245 43.5063 49.3406 43.7765 49.5134 44.0645C49.7708 44.2359 50.0064 44.4507 50.2058 44.709C51.1883 45.9825 50.9526 47.8123 49.6793 48.7951L41.9013 54.7979C40.628 55.7806 38.7988 55.5452 37.8157 54.2722C36.8328 52.9987 37.068 51.1696 38.3414 50.1866L42.172 47.2296L37.4161 43.1972C37.2701 43.2042 37.1226 43.2089 36.9742 43.2054L36.5006 43.1935C36.494 43.2396 36.4894 43.286 36.4813 43.3321C35.9471 46.3777 35.3205 51.1318 35.8223 54.636C36.2973 57.9526 37.2762 62.2871 37.9904 65.2526C38.4274 67.0676 37.2175 68.8843 35.3695 69.1485C33.8196 69.3699 32.3466 68.4104 31.9511 66.8957C31.1695 63.9003 29.9555 58.9609 29.4417 55.3383C29.0334 52.4588 28.7869 47.3027 28.6433 43.0063L28.6048 43.0059L28.4277 29.0488C28.4024 29.0167 28.3746 28.986 28.3506 28.9524L20.6065 18.1349C19.9009 17.1491 19.9674 15.8452 20.6847 14.9403C20.7361 14.7916 20.8022 14.6453 20.8838 14.5039L26.823 4.21666C27.5148 3.01861 29.0468 2.60821 30.2449 3.29986C31.4429 3.99168 31.8534 5.52367 31.1617 6.72179L25.7191 16.1484L31.3648 24.0344L40.2336 24.214L46.2522 15.9139L41.0577 6.78977C40.3324 5.51512 40.7772 3.89346 42.0517 3.16783C43.3265 2.44224 44.9485 2.88811 45.6742 4.16277L51.5418 14.4703Z" fill="#2196F3"/>
</svg>
