<svg width="72" height="72" viewBox="0 0 72 72" fill="none" xmlns="http://www.w3.org/2000/svg">
<path d="M5.54755 10.6983H66.4525V14.5347H5.54755V10.6983Z" fill="#5B7682"/>
<path d="M27.1939 29.7665C23.8043 29.7665 21.0565 27.0187 21.0565 23.6291C21.0565 20.2395 23.8043 17.4917 27.1939 17.4917C30.5835 17.4917 33.3313 20.2395 33.3313 23.6291C33.3313 27.0187 30.5835 29.7665 27.1939 29.7665Z" fill="#FEB64F"/>
<path d="M51.5212 40.0674C52.481 41.1355 52.393 42.7794 51.3249 43.7393L33.0075 60.2012C32.8624 60.3316 32.7059 60.4413 32.5427 60.5332C31.4801 61.2369 30.084 61.6651 28.5544 61.6651C25.2268 61.6649 22.5292 59.6438 22.529 57.1504C22.529 54.6569 25.2266 52.635 28.5544 52.6348C30.0411 52.6348 31.402 53.0393 32.4528 53.708L47.8493 39.8711C48.9174 38.9115 50.5614 38.9994 51.5212 40.0674Z" fill="#2196F3"/>
<path d="M50.0518 38.7363C51.1231 39.8673 51.0479 41.6229 49.8839 42.6582L31.5167 58.9912C30.4196 60.1415 28.8714 60.8572 27.1563 60.8535C23.8385 60.8462 21.154 58.1508 21.1612 54.833L21.2003 37.3184C21.2045 35.4308 22.0795 33.7487 23.4434 32.6504V12.96C23.4434 11.5104 24.6189 10.335 26.0684 10.335C27.518 10.335 28.6934 11.5104 28.6934 12.96V31.5088C31.298 32.1712 33.2221 34.5348 33.2159 37.3447L33.1886 49.957L46.003 38.5625C47.1674 37.5273 48.9802 37.6053 50.0518 38.7363Z" fill="#2196F3"/>
</svg>
