<svg width="72" height="72" viewBox="0 0 72 72" fill="none" xmlns="http://www.w3.org/2000/svg">
<path d="M19.082 36.9438C19.082 40.8881 15.8845 44.0856 11.9402 44.0856C7.9959 44.0856 4.7984 40.8881 4.7984 36.9438C4.7984 32.9995 7.9959 29.802 11.9402 29.802C15.8845 29.802 19.082 32.9995 19.082 36.9438Z" fill="#FEB64F"/>
<path d="M61.3646 52.0966C62.7425 51.0073 62.9765 49.0073 61.8873 47.6294L50.051 32.6566C48.9618 31.2787 46.9618 31.0447 45.5839 32.1339C44.206 33.2232 43.9721 35.2232 45.0613 36.6011L56.8975 51.5739C57.9867 52.9518 59.9867 53.1858 61.3646 52.0966Z" fill="#0079D9"/>
<path d="M28.8736 21.1659C29.5056 19.5796 31.3039 18.8063 32.8902 19.4384C34.4763 20.0705 35.2497 21.8688 34.6177 23.455L28.1695 39.6376L41.2818 39.6669L46.1275 29.2177C47.1389 27.0364 49.7274 26.0875 51.9087 27.0985C52.5282 27.3858 53.0487 27.8006 53.4527 28.2968C53.4914 28.3406 53.5292 28.3861 53.566 28.4325L66.5162 44.8144C67.6052 46.1921 67.3712 48.1919 65.9937 49.2812C64.6158 50.3701 62.6151 50.1365 61.5259 48.7587L52.1587 36.9081L47.3521 47.2743C46.6769 49.9092 44.2845 51.8548 41.44 51.8485L25.5406 51.8134C22.1775 51.8057 19.4571 49.0729 19.4644 45.7099C19.467 44.5575 19.7891 43.48 20.3472 42.5624L28.8736 21.1659Z" fill="#2196F3"/>
</svg>
