<svg width="72" height="72" viewBox="0 0 72 72" fill="none" xmlns="http://www.w3.org/2000/svg">
<path d="M29.8002 44.0917C29.8002 46.2455 31.5462 47.9914 33.6999 47.9914H64.9457C67.0995 47.9914 68.8455 46.2455 68.8455 44.0917C68.8455 41.9379 67.0995 40.192 64.9457 40.192H33.6999C31.5462 40.192 29.8002 41.9379 29.8002 44.0917Z" fill="#0079D9"/>
<path d="M17.4381 33.9363C17.4381 37.8807 14.2406 41.0782 10.2963 41.0782C6.35198 41.0782 3.15448 37.8807 3.15448 33.9363C3.15448 29.992 6.35198 26.7945 10.2963 26.7945C14.2406 26.7945 17.4381 29.992 17.4381 33.9363Z" fill="#FEB64F"/>
<path d="M35.8295 23.3365C36.0083 23.3307 36.1873 23.337 36.3646 23.3541L53.9476 24.0289C55.647 24.0941 56.969 25.525 56.8998 27.2242C56.8302 28.9236 55.3953 30.2484 53.6957 30.1832L42.1459 29.7388L47.2738 38.3394C47.323 38.4218 47.3681 38.5062 47.4105 38.5904C48.339 39.6619 48.9011 41.0593 48.8978 42.5885C48.8904 45.9518 46.1577 48.673 42.7943 48.6656L23.89 48.6236C20.97 48.6171 18.535 46.5562 17.9486 43.8121C17.859 43.5167 17.8121 43.2026 17.8158 42.8775L17.8168 42.7125C17.8149 42.6486 17.8127 42.5845 17.8129 42.5201C17.8131 42.4061 17.8172 42.2927 17.8236 42.1802L17.9066 34.8765L12.8871 37.6558C11.3933 38.4829 9.51216 37.9425 8.68495 36.4488C7.85793 34.9549 8.39812 33.0728 9.89198 32.2457L20.0521 26.6207C21.546 25.7937 23.4281 26.334 24.2553 27.8277C24.5718 28.3994 24.6853 29.028 24.6244 29.6324C24.6265 29.6859 24.6279 29.7404 24.6273 29.7945L24.5512 36.4449L36.8246 36.4722L32.515 29.2447C31.3842 27.3474 32.0402 24.93 33.9682 23.8521C34.3901 23.6163 34.8388 23.462 35.2943 23.3873C35.4682 23.3554 35.6473 23.3378 35.8295 23.3365Z" fill="#2196F3"/>
</svg>
