<svg width="72" height="72" viewBox="0 0 72 72" fill="none" xmlns="http://www.w3.org/2000/svg">
<path d="M41.0039 18.8597C42.1084 18.8597 43.0039 19.7551 43.0039 20.8597V42.2274C43.0039 43.332 42.1084 44.2274 41.0039 44.2274H31.0439C29.9394 44.2274 29.0439 43.332 29.0439 42.2274V20.8597C29.0439 19.7551 29.9394 18.8597 31.0439 18.8597L41.0039 18.8597Z" fill="#2196F3"/>
<path d="M29.7726 37.9624C30.0907 36.1858 31.789 35.0028 33.5656 35.3208C35.3422 35.6388 36.5242 37.3372 36.2062 39.1137L33.2492 55.6303L38.9972 61.3784C40.0712 62.4523 40.0712 64.1941 38.9972 65.268C37.9233 66.3418 36.1825 66.3418 35.1086 65.268L27.5373 57.6968C27.0633 57.2227 26.7988 56.6187 26.7433 55.9995C26.6798 55.6339 26.6781 55.2512 26.7472 54.8647L29.7726 37.9624Z" fill="#2196F3"/>
<path d="M39.0428 61.4378C37.9662 62.2266 36.4484 62.1382 35.4754 61.1654C34.4939 60.1838 34.4111 58.6468 35.2224 57.5687L39.0428 61.4378Z" fill="#2196F3"/>
<path d="M39.0974 36.9583C40.8751 36.6401 42.5741 37.8233 42.8924 39.6009L45.3318 53.224C45.3571 53.3651 45.3719 53.5063 45.3787 53.6458C45.4808 54.4599 45.2215 55.3108 44.5965 55.9359L44.5242 56.0091C44.4597 56.0797 44.3917 56.1474 44.3211 56.2122L39.367 61.1654C39.2688 61.2635 39.1628 61.3498 39.0545 61.43L42.865 53.9398L37.074 44.2142L36.4549 40.7533C36.1368 38.9757 37.3199 37.2766 39.0974 36.9583Z" fill="#2196F3"/>
<path d="M38.8172 53.9398L36.9969 55.7523L38.8142 53.9359L37.9646 49.1917L38.8172 53.9398Z" fill="#2196F3"/>
<path d="M39.0626 61.4618L35.2125 57.5623L38.8321 53.9579L37.086 44.2274L42.8797 53.9579L39.0626 61.4618Z" fill="#0079D9"/>
<path d="M42.09 11.9489C42.09 15.2749 39.3937 17.9712 36.0677 17.9712C32.7417 17.9712 30.0454 15.2749 30.0454 11.9489C30.0454 8.6229 32.7417 5.92664 36.0677 5.92664C39.3937 5.92664 42.09 8.6229 42.09 11.9489Z" fill="#FEB64F"/>
<path d="M4.04614 31.6231H67.9539V35.4595H4.04614V31.6231Z" fill="#5B7682"/>
<path d="M41.5463 18.9121L51.2494 20.292C52.1497 20.4201 52.8807 20.9791 53.269 21.7295C53.5449 22.133 53.7065 22.6208 53.7065 23.1465V32.1192C53.7064 33.5075 52.5811 34.6328 51.1928 34.6328C49.8046 34.6327 48.6791 33.5074 48.6791 32.1192V25.3877L40.7846 24.2666C39.3063 24.0563 38.2786 22.6873 38.4887 21.209C38.6989 19.7305 40.0678 18.7019 41.5463 18.9121Z" fill="#2196F3"/>
<path d="M30.301 18.9374C31.7793 18.7275 33.1484 19.7559 33.3586 21.2342C33.5686 22.7126 32.5401 24.0817 31.0618 24.2919L23.1672 25.413V32.1444C23.1671 33.5327 22.0418 34.6581 20.6536 34.6581C19.2653 34.658 18.14 33.5326 18.1399 32.1444V23.1717C18.1399 22.6483 18.2998 22.1621 18.5735 21.7596C18.9611 21.0062 19.6952 20.4456 20.5979 20.3172L30.301 18.9374Z" fill="#2196F3"/>
</svg>
