<svg width="72" height="72" viewBox="0 0 72 72" fill="none" xmlns="http://www.w3.org/2000/svg">
<path d="M66.4528 57.9772H5.54755V54.1403H12.0222V37.4156H17.9792V54.1403H66.4528V57.9772Z" fill="#5B7682"/>
<path d="M26.8164 34.2296L25.3512 27.5319L29.9336 36.2217L26.8164 34.2296Z" fill="#1976D2"/>
<path d="M20.5815 20.1848C20.5815 23.588 17.8226 26.3469 14.4194 26.3469C11.0162 26.3469 8.25739 23.588 8.25739 20.1848C8.25739 16.7816 11.0162 14.0228 14.4194 14.0228C17.8226 14.0228 20.5815 16.7816 20.5815 20.1848Z" fill="#FEB64F"/>
<path d="M20.9348 23.964C22.5674 21.4027 25.9682 20.6501 28.5296 22.2823L43.3772 31.7453C45.6604 33.2005 46.5043 36.0595 45.5051 38.4777L59.1526 48.0793C60.6559 49.137 61.0178 51.2137 59.9602 52.7171C58.9025 54.2204 56.8258 54.5814 55.3225 53.5237L37.9309 41.2873C37.7733 41.207 37.6174 41.1187 37.4651 41.0217L29.9124 36.2082L25.3714 27.5851L26.8313 34.2443L26.8294 34.2433C26.8928 34.7963 26.7684 35.335 26.5022 35.7902C26.1106 36.6254 25.2731 37.2127 24.2884 37.2336L16.179 37.4055C14.796 37.4346 13.6508 36.3374 13.6214 34.9543C13.5923 33.5714 14.6897 32.4263 16.0725 32.3966L21.2874 32.2853L20.6507 29.3751C19.8196 27.7046 19.8591 25.652 20.9348 23.964Z" fill="#2196F3"/>
</svg>
