<svg width="72" height="72" viewBox="0 0 72 72" fill="none" xmlns="http://www.w3.org/2000/svg">
<path d="M13.0656 28.3987C16.0129 30.1003 17.0227 33.869 15.3211 36.8162C13.6195 39.7635 9.85085 40.7733 6.90359 39.0717C3.95632 37.3701 2.94652 33.6015 4.64812 30.6542C6.34972 27.7069 10.1184 26.6971 13.0656 28.3987Z" fill="#FEB64F"/>
<path d="M67.8015 48.9721H6.89618V45.1362H61.8434V28.1088H67.8015V48.9721Z" fill="#5B7682"/>
<path d="M40.2155 23.0817C42.5299 22.7506 44.7068 23.9756 45.6921 25.9616L64.239 23.2683C66.121 22.9949 67.8686 24.2994 68.1423 26.1813C68.4157 28.0636 67.1114 29.8112 65.2292 30.0847L42.5221 33.3835C42.4583 33.3928 42.3942 33.4003 42.3307 33.406C42.1294 33.4597 41.923 33.5036 41.7116 33.5339L32.0983 34.9089L23.2448 30.4362L28.3844 35.4489C29.3551 36.4006 29.3923 37.9569 28.4567 38.9518L23.2389 44.4987C22.291 45.5065 20.7057 45.555 19.6979 44.6071C18.6904 43.6591 18.6417 42.0738 19.5895 41.0661L22.7624 37.6921L20.6559 35.5456C19.2019 34.7856 18.121 33.3621 17.8708 31.614C17.4579 28.728 19.4624 26.0537 22.3483 25.6403L40.2155 23.0817Z" fill="#2196F3"/>
<path d="M28.3512 35.4178L23.2119 30.4047L32.106 34.9075L28.3512 35.4178Z" fill="#1976D2"/>
</svg>
