<svg width="72" height="72" viewBox="0 0 72 72" fill="none" xmlns="http://www.w3.org/2000/svg">
<path d="M5.54755 49.3814H66.4525V53.2178H5.54755V49.3814Z" fill="#5B7682"/>
<path d="M18.6987 49.3152C17.5221 49.0162 16.8101 47.8198 17.1082 46.6431L21.2236 30.4006C21.5218 29.2238 22.7172 28.5123 23.8938 28.8113C25.0703 29.1103 25.7824 30.3067 25.4842 31.4834L21.3688 47.7259C21.0707 48.9027 19.8752 49.6142 18.6987 49.3152Z" fill="#0079D9"/>
<path d="M17.8716 24.9443C17.8716 28.3475 15.1128 31.1063 11.7096 31.1063C8.30639 31.1063 5.54755 28.3475 5.54755 24.9443C5.54755 21.5411 8.30639 18.7822 11.7096 18.7822C15.1128 18.7822 17.8716 21.5411 17.8716 24.9443Z" fill="#FEB64F"/>
<path d="M19.061 26.8498C20.2277 23.7978 23.6476 22.2692 26.6996 23.4357L43.7983 29.9718C46.8503 31.1385 48.3788 34.5584 47.2123 37.6105C47.2097 37.6174 47.2062 37.6241 47.2035 37.631L62.5365 43.7863C64.0248 44.3838 64.7472 46.0753 64.1498 47.5636C63.5523 49.052 61.8609 49.7743 60.3725 49.1769L40.9027 41.3615C40.779 41.3448 40.6553 41.3247 40.5317 41.2999L39.5961 42.2365L44.769 44.4562C46.0679 45.0141 46.6684 46.5194 46.1108 47.8185C45.5529 49.1177 44.0477 49.7192 42.7485 49.1613L33.2113 45.0666C33.0995 45.0185 32.9942 44.9599 32.893 44.8986C32.5648 44.7199 32.2556 44.4926 31.9779 44.215C30.4211 42.6579 30.4212 40.1334 31.9779 38.5763L32.3061 38.2472L22.475 34.4894C22.4259 34.4706 22.3778 34.4488 22.3295 34.4289L19.1869 47.4367C18.8619 48.7815 17.5081 49.6081 16.1635 49.2824C14.8189 48.9565 13.9921 47.6018 14.3168 46.257L18.7543 27.8937C18.7663 27.8443 18.7816 27.7962 18.7963 27.7482C18.8599 27.447 18.9476 27.1464 19.061 26.8498Z" fill="#2196F3"/>
</svg>
