<svg width="72" height="72" viewBox="0 0 72 72" fill="none" xmlns="http://www.w3.org/2000/svg">
<path d="M54.1651 28.3826C53.9893 28.7312 53.7537 29.0293 53.479 29.2742C52.9166 30.0977 51.857 30.4829 50.8667 30.1464L38.7643 26.0323C37.2753 25.5262 36.4784 23.909 36.9842 22.4201C37.4904 20.9311 39.1075 20.1341 40.5965 20.6401L50.7078 24.076L53.8588 17.8292C54.4841 16.59 55.9952 16.0917 57.2345 16.7166C58.474 17.3419 58.9726 18.8542 58.3474 20.0937L54.1651 28.3826Z" fill="#2196F3"/>
<path d="M17.8116 28.8988C17.9875 29.2474 18.223 29.5455 18.4978 29.7904C19.0603 30.6138 20.1198 30.9991 21.1101 30.6627L33.2125 26.5486C34.7016 26.0424 35.4982 24.4245 34.9921 22.9355C34.4858 21.4466 32.8688 20.6494 31.3798 21.1555L21.2698 24.5917L17.8527 17.8175C17.2273 16.5783 15.7155 16.0804 14.4761 16.7055C13.2366 17.3307 12.7389 18.8425 13.364 20.082L17.8116 28.8988Z" fill="#2196F3"/>
<path d="M42.8841 11.9179C42.8841 15.2439 40.1879 17.9402 36.8619 17.9402C33.5359 17.9402 30.8396 15.2439 30.8396 11.9179C30.8396 8.5919 33.5359 5.89563 36.8619 5.89563C40.1879 5.89563 42.8841 8.5919 42.8841 11.9179Z" fill="#FEB64F"/>
<path d="M42.87 18.9258C43.4223 18.9258 43.87 19.3735 43.87 19.9258V43.2586C43.87 43.8109 43.4223 44.2586 42.87 44.2586H30.9101C30.3578 44.2586 29.9101 43.8109 29.9101 43.2586V19.9258C29.9101 19.3735 30.3578 18.9258 30.9101 18.9258L42.87 18.9258Z" fill="#2196F3"/>
<path d="M30.6389 37.9933C30.957 36.2167 32.6553 35.0346 34.4319 35.3527C36.2083 35.6707 37.3904 37.3682 37.0725 39.1447L34.1155 55.6613L39.8635 61.4103C40.9374 62.4842 40.9374 64.2251 39.8635 65.299C38.7896 66.3729 37.0488 66.3728 35.9748 65.299L28.4035 57.7287C27.9297 57.2548 27.6653 56.6505 27.6096 56.0314C27.5459 55.6655 27.5443 55.2825 27.6135 54.8956L30.6389 37.9933Z" fill="#2196F3"/>
<path d="M4.04614 17.9402H67.9539V21.7766H4.04614V17.9402Z" fill="#5B7682"/>
<path d="M39.9092 61.4689C38.8327 62.2579 37.3149 62.1695 36.3419 61.1965C35.3603 60.2149 35.2774 58.6779 36.0889 57.5998L39.9092 61.4689ZM39.9639 36.9894C41.7415 36.6713 43.4404 37.8545 43.7589 39.632L46.1983 53.256C46.2239 53.399 46.2385 53.5415 46.2452 53.6828C46.3454 54.4952 46.0865 55.3433 45.463 55.967L45.3985 56.0304C45.329 56.1071 45.2555 56.1802 45.1788 56.2502L40.2335 61.1965C40.1353 61.2946 40.0293 61.3809 39.921 61.4611L43.7315 53.9709L37.9405 44.2453L37.3214 40.7844C37.0034 39.0069 38.1864 37.3077 39.9639 36.9894ZM39.6837 53.9709L37.7989 55.8478L39.6807 53.965L38.9219 49.7267L39.6837 53.9709Z" fill="#2196F3"/>
<path d="M39.9328 61.493L36.0827 57.5934L39.7023 53.9891L37.9562 44.2586L43.7499 53.9891L39.9328 61.493Z" fill="#0079D9"/>
</svg>
