<svg width="72" height="72" viewBox="0 0 72 72" fill="none" xmlns="http://www.w3.org/2000/svg">
<path d="M17.5753 24.4191C17.5753 27.8223 14.8164 30.5812 11.4132 30.5812C8.01 30.5812 5.25116 27.8223 5.25116 24.4191C5.25116 21.0159 8.01 18.2571 11.4132 18.2571C14.8164 18.2571 17.5753 21.0159 17.5753 24.4191Z" fill="#FEB64F"/>
<path d="M5.84391 49.9064H66.7488V53.7428H5.84391V49.9064Z" fill="#5B7682"/>
<path d="M22.1211 39.4471L21.519 31.529L25.5877 42.0476L22.1211 39.4471Z" fill="#1976D2"/>
<path fill-rule="evenodd" clip-rule="evenodd" d="M17.7327 28.8945C19.6629 26.321 23.3145 25.7993 25.888 27.7295L39.0921 37.6338C41.1693 39.1921 41.9662 41.8223 41.2933 44.1787L57.4388 44.1494C59.0301 44.1468 60.3226 45.4349 60.3255 47.0264C60.3281 48.5805 59.0996 49.846 57.5599 49.9072H36.0403L22.1185 39.4649L22.3109 42.0586C22.313 42.0893 22.3117 42.1209 22.3128 42.1514C22.46 43.029 22.134 43.9582 21.3831 44.544L15.1087 49.4385C14.0182 50.289 12.4443 50.0946 11.5931 49.0049C10.7422 47.9141 10.9361 46.3394 12.0267 45.4883L17.2386 41.4209L16.639 33.2901C16.4046 31.7916 16.7509 30.2037 17.7327 28.8945ZM22.1214 39.4658L25.5882 42.0664L21.5189 31.5479L22.1214 39.4658Z" fill="#2196F3"/>
</svg>
