<svg width="72" height="72" viewBox="0 0 72 72" fill="none" xmlns="http://www.w3.org/2000/svg">
<path d="M54.1171 21.3756C50.6281 21.3756 47.7998 18.5472 47.7998 15.0583C47.7998 11.5693 50.6281 8.741 54.1171 8.741C57.606 8.741 60.4344 11.5693 60.4344 15.0583C60.4344 18.5472 57.606 21.3756 54.1171 21.3756Z" fill="#FEB64F"/>
<path d="M12.884 59.4398C14.4195 60.6949 16.6817 60.4677 17.9369 58.9322L34.7231 38.3967C35.9782 36.8613 35.751 34.599 34.2155 33.3439C32.68 32.0887 30.4178 32.316 29.1626 33.8515L12.3764 54.3869C11.1212 55.9224 11.3485 58.1846 12.884 59.4398Z" fill="#0079D9"/>
<path d="M48.2114 22.3547C50.5302 24.6736 50.5303 28.4333 48.2114 30.7522L39.1802 39.7834L42.4106 43.0139C43.3204 43.9236 43.6976 45.1635 43.5444 46.3479V60.0783C43.5444 61.8346 42.121 63.2588 40.3647 63.259C38.6086 63.2588 37.1842 61.8346 37.1841 60.0783V49.0119C37.0409 48.9032 36.9027 48.7842 36.772 48.6535L30.0396 41.9201C29.7749 41.7313 29.5212 41.5199 29.2837 41.2824C26.9648 38.9635 26.9648 35.2039 29.2837 32.885L36.3374 25.8313H18.6265C17.1968 25.8313 16.0378 24.672 16.0376 23.2424C16.0376 21.8126 17.1967 20.6535 18.6265 20.6535L42.9937 20.6535C43.081 20.6535 43.1674 20.6568 43.2524 20.6652C45.0143 20.4391 46.8582 21.0015 48.2114 22.3547Z" fill="#2196F3"/>
</svg>
