<svg width="72" height="72" viewBox="0 0 72 72" fill="none" xmlns="http://www.w3.org/2000/svg">
<path d="M32.6535 18.066C28.7092 18.066 25.5117 14.8685 25.5117 10.9241C25.5117 6.97982 28.7092 3.78233 32.6535 3.78233C36.5978 3.78233 39.7953 6.97983 39.7953 10.9241C39.7953 14.8685 36.5978 18.066 32.6535 18.066Z" fill="#FEB64F"/>
<path d="M25.8481 41.7177L34.9695 26.8232L27.4929 41.7177H25.8481Z" fill="#1C78D3"/>
<path d="M58.7265 45.932C58.7265 44.1148 57.2534 42.6417 55.4362 42.6417H30.8754C29.0582 42.6417 27.5851 44.1148 27.5851 45.932C27.5851 47.7492 29.0582 49.2223 30.8754 49.2223H55.4362C57.2534 49.2223 58.7265 47.7492 58.7265 45.932Z" fill="#0079D9"/>
<path fill-rule="evenodd" clip-rule="evenodd" d="M27.7637 20.6319C28.0525 20.6101 28.3441 20.6099 28.6358 20.6299H52.003C53.7105 20.6299 55.0947 22.0142 55.0948 23.7217C55.0946 25.4292 53.7105 26.8135 52.003 26.8135H34.9766L27.5088 41.6885H38.1963C40.6006 41.6886 42.5495 43.6379 42.5498 46.042C42.5498 46.9075 42.2959 47.7138 41.8604 48.3916C41.8071 48.5371 41.7464 48.6826 41.6748 48.8243L32.9844 66.0293C31.9925 67.9928 29.5965 68.7809 27.6329 67.7891C25.6697 66.7971 24.8816 64.401 25.8731 62.4375L31.9551 50.3965H20.2901C20.2029 50.3965 20.1162 50.3938 20.0303 50.3887C18.9009 50.514 17.7231 50.3271 16.6319 49.7793C13.6264 48.2704 12.4135 44.6102 13.9219 41.6045L22.7725 23.9737C23.6858 22.1545 25.3878 20.9933 27.2549 20.6934C27.42 20.6594 27.5902 20.6384 27.7637 20.6319ZM25.8526 41.708H27.4971L34.9737 26.8135L25.8526 41.708Z" fill="#2196F3"/>
</svg>
