<svg width="72" height="72" viewBox="0 0 72 72" fill="none" xmlns="http://www.w3.org/2000/svg">
<path d="M56.5781 42.2878C58.3414 44.0511 57.8631 47.3882 55.5099 49.7415C53.1566 52.0947 49.8195 52.5729 48.0562 50.8097C46.293 49.0464 46.7712 45.7093 49.1245 43.356C51.4777 41.0028 54.8148 40.5245 56.5781 42.2878Z" fill="#0079D9"/>
<path d="M26.6184 38.5657C26.6184 41.9554 23.8706 44.7032 20.4809 44.7032C17.0913 44.7032 14.3435 41.9554 14.3435 38.5657C14.3435 35.1761 17.0913 32.4283 20.4809 32.4283C23.8706 32.4283 26.6184 35.1761 26.6184 38.5657Z" fill="#FEB64F"/>
<path d="M54.6993 12.5164C53.0662 12.5164 51.7422 13.8404 51.7422 15.4736V44.6202C51.7422 46.2534 53.0662 47.5774 54.6993 47.5774C56.3325 47.5774 57.6565 46.2534 57.6565 44.6202V15.4736C57.6565 13.8404 56.3325 12.5164 54.6993 12.5164Z" fill="#0079D9"/>
<path d="M52.5535 12.6638C54.4661 12.6034 56.0162 14.1056 56.0163 16.0193V46.1433C56.0163 46.4152 55.9837 46.6805 55.9245 46.9363C55.4867 49.7739 53.0311 51.9438 50.072 51.9372L48.2009 51.9324L53.8718 54.4607C55.1957 55.0509 55.79 56.6026 55.1999 57.9265C54.6097 59.2504 53.0581 59.8458 51.7341 59.2556L35.2449 51.904L32.5271 51.8982C29.2638 51.8907 26.6245 49.2396 26.6316 45.9763C26.6388 42.7128 29.29 40.0727 32.5535 40.0798L49.0896 40.116V16.239C49.0896 14.3252 50.6406 12.7243 52.5535 12.6638Z" fill="#2196F3"/>
</svg>
