<svg width="72" height="72" viewBox="0 0 72 72" fill="none" xmlns="http://www.w3.org/2000/svg">
<path d="M40.8912 16.8508C42.6364 19.7724 46.4196 20.7262 49.3413 18.9809C52.2629 17.2357 53.2166 13.4525 51.4714 10.5309C49.7262 7.6092 45.943 6.65549 43.0213 8.4007C40.0997 10.1459 39.146 13.9291 40.8912 16.8508Z" fill="#FEB64F"/>
<path d="M43.8473 20.4586C41.0853 19.3271 37.9288 20.6488 36.7971 23.4107L30.1201 39.7082C29.0271 42.3764 30.2245 45.4116 32.797 46.6349L29.5937 54.7262L19.9533 58.9502C18.4955 59.5889 17.8316 61.2881 18.4702 62.7459C19.1089 64.2038 20.808 64.8677 22.2659 64.229L32.0531 59.9424C32.1799 59.8868 32.2986 59.8197 32.4131 59.749C33.3271 59.556 34.1303 58.9242 34.4999 57.9905L40.0476 43.9783C40.0732 43.9214 40.0992 43.8641 40.1231 43.8058L46.7993 27.5088C47.9309 24.7467 46.6093 21.5902 43.8473 20.4586Z" fill="#2196F3"/>
<path d="M66.4525 32.8001L5.54755 32.8001L5.54755 36.6365L66.4525 36.6365V32.8001Z" fill="#5B7682"/>
<path d="M26.4826 35.6153C27.746 36.1793 29.2274 35.6123 29.7914 34.3489L33.3584 26.3582C33.9224 25.0948 33.3554 23.6134 32.092 23.0494C30.8286 22.4854 29.3472 23.0524 28.7832 24.3158L25.2162 32.3066C24.6522 33.57 25.2192 35.0514 26.4826 35.6153Z" fill="#2196F3"/>
<path d="M44.0255 22.2879C43.7146 20.7913 42.2493 19.8302 40.7528 20.1412L30.9509 22.1778C29.4544 22.4888 28.4933 23.954 28.8042 25.4505C29.1152 26.9471 30.5804 27.9082 32.077 27.5972L41.8788 25.5606C43.3754 25.2497 44.3365 23.7844 44.0255 22.2879Z" fill="#2196F3"/>
</svg>
