<svg width="72" height="72" viewBox="0 0 72 72" fill="none" xmlns="http://www.w3.org/2000/svg">
<path d="M52.3395 27.3369C49.3423 25.7248 48.2196 21.9882 49.8317 18.9911C51.4438 15.994 55.1804 14.8712 58.1775 16.4833C61.1747 18.0955 62.2974 21.832 60.6853 24.8292C59.0732 27.8263 55.3366 28.9491 52.3395 27.3369Z" fill="#FEB64F"/>
<path d="M49.6358 26.9911C51.5557 29.2148 51.3098 32.5741 49.0863 34.4941L35.485 46.2362C33.4638 47.9807 30.5054 47.9358 28.5415 46.2439L15.5759 57.066C14.2845 58.1439 12.364 57.9713 11.2859 56.6801C10.2082 55.3888 10.3808 53.4682 11.6718 52.3901L27.8732 38.8652C28.0694 38.623 28.2881 38.3927 28.5323 38.1819L36.375 31.4126L45.8568 29.9782L38.7343 29.3972L36.418 31.3759L38.7206 29.3876L35.8654 29.0183C35.5037 28.9715 35.17 28.8486 34.8765 28.6716C34.3104 28.3706 33.8585 27.854 33.6562 27.1924L30.808 17.8795C30.4039 16.5567 31.1491 15.1561 32.4718 14.7514C33.7947 14.3471 35.1952 15.0924 35.5999 16.4151L37.9627 24.1419L45.7519 25.1492C47.1952 25.1884 48.6178 25.8122 49.6358 26.9911Z" fill="#2196F3"/>
<path d="M38.7343 29.3942L45.8903 29.9857L36.3508 31.4286L38.7343 29.3942Z" fill="#1976D2"/>
<path d="M30.6624 13.1768V58.8231H26.826V13.1768L30.6624 13.1768Z" fill="#5B7682"/>
</svg>
