<svg width="72" height="72" viewBox="0 0 72 72" fill="none" xmlns="http://www.w3.org/2000/svg">
<path d="M33.9 18.868C29.9557 18.868 26.7582 15.6705 26.7582 11.7261C26.7582 7.78183 29.9557 4.58433 33.9 4.58433C37.8444 4.58433 41.0419 7.78183 41.0419 11.7261C41.0419 15.6705 37.8444 18.868 33.9 18.868Z" fill="#FEB64F"/>
<path d="M28.1662 40.6113L37.4311 27.2955L29.7453 40.6113H28.1662Z" fill="#1C78D3"/>
<path d="M23.785 64.9509C25.3061 65.8291 27.2511 65.3079 28.1293 63.7868L37.6724 47.2577C38.5506 45.7366 38.0294 43.7916 36.5083 42.9134C34.9872 42.0352 33.0422 42.5563 32.164 44.0774L22.6209 60.6065C21.7427 62.1276 22.2639 64.0727 23.785 64.9509Z" fill="#0079D9"/>
<path d="M30.7027 21.101H53.7623C55.4695 21.1014 56.8539 22.4856 56.8541 24.1928C56.8541 25.9002 55.4696 27.2843 53.7623 27.2846H37.4557L37.4332 27.3227L28.1871 40.6118H29.7662L29.7672 40.6108H38.4039C40.8081 40.6113 42.7584 42.561 42.7584 44.9653C42.7583 45.6478 42.5999 46.2936 42.3199 46.8686C42.2964 46.9224 42.2715 46.9767 42.2447 47.0298L32.8307 65.6694C32.0388 67.2367 30.1257 67.8649 28.5582 67.0737C26.9905 66.2818 26.3611 64.369 27.1529 62.8012L33.9635 49.3188H21.8912C21.7143 49.3188 21.5392 49.3071 21.3678 49.2866C20.2907 49.3108 19.1932 49.0491 18.192 48.4712C15.2794 46.7895 14.2811 43.0655 15.9625 40.1528L25.2066 24.1421C26.3733 22.1215 28.523 21.0233 30.7027 21.101Z" fill="#2196F3"/>
</svg>
